HIERARCHY
ROOT joint_Root
{
	OFFSET 0.0 0.0 0.0
	CHANNELS 6 Xposition Yposition Zposition Zrotation Xrotation Yrotation 
	JOINT Hips
	{
		OFFSET 4.5925 91.4895 -427.239
		CHANNELS 6 Xposition Yposition Zposition Zrotation Xrotation Yrotation 
		JOINT Spine
		{
			OFFSET 15.7357 0.0 0.0
			CHANNELS 6 Xposition Yposition Zposition Zrotation Xrotation Yrotation 
			JOINT Chest
			{
				OFFSET 8.98455 -0.406207 0.0
				CHANNELS 6 Xposition Yposition Zposition Zrotation Xrotation Yrotation 
				JOINT Neck
				{
					OFFSET 16.3773 0.0 0.0
					CHANNELS 6 Xposition Yposition Zposition Zrotation Xrotation Yrotation 
					JOINT Head
					{
						OFFSET 6.45672 0.0 0.0
						CHANNELS 6 Xposition Yposition Zposition Zrotation Xrotation Yrotation 
						End Site
						{
							OFFSET 0.0 0.0 0.0
						}
					}
				}
				JOINT Shoulder_L
				{
					OFFSET 12.9942 -0.242716 4.98039
					CHANNELS 6 Xposition Yposition Zposition Zrotation Xrotation Yrotation 
					JOINT UpperArm_L
					{
						OFFSET 5.34809 0.0 0.0
						CHANNELS 6 Xposition Yposition Zposition Zrotation Xrotation Yrotation 
						JOINT LowerArm_L
						{
							OFFSET 24.3286 1.87007e-05 0.0
							CHANNELS 6 Xposition Yposition Zposition Zrotation Xrotation Yrotation 
							JOINT Hand_L
							{
								OFFSET 22.2916 0.0 0.0
								CHANNELS 6 Xposition Yposition Zposition Zrotation Xrotation Yrotation 
								End Site
								{
									OFFSET 0.0 0.0 0.0
								}
							}
						}
					}
				}
				JOINT Shoulder_R
				{
					OFFSET 12.9945 -0.242716 -4.98039
					CHANNELS 6 Xposition Yposition Zposition Zrotation Xrotation Yrotation 
					JOINT UpperArm_R
					{
						OFFSET -5.34813 0.0 0.0
						CHANNELS 6 Xposition Yposition Zposition Zrotation Xrotation Yrotation 
						JOINT LowerArm_R
						{
							OFFSET -24.3289 0.000322201 0.0
							CHANNELS 6 Xposition Yposition Zposition Zrotation Xrotation Yrotation 
							JOINT Hand_R
							{
								OFFSET -22.2915 -0.000108084 0.0
								CHANNELS 6 Xposition Yposition Zposition Zrotation Xrotation Yrotation 
								End Site
								{
									OFFSET 0.0 0.0 0.0
								}
							}
						}
					}
				}
			}
		}
		JOINT UpperLeg_L
		{
			OFFSET -2.19248 -6.46944 0.0
			CHANNELS 6 Xposition Yposition Zposition Zrotation Xrotation Yrotation 
			JOINT LowerLeg_L
			{
				OFFSET 39.0811 0.0 -1.23785e-05
				CHANNELS 6 Xposition Yposition Zposition Zrotation Xrotation Yrotation 
				JOINT Foot_L
				{
					OFFSET 40.9854 0.0 -1.26872e-05
					CHANNELS 6 Xposition Yposition Zposition Zrotation Xrotation Yrotation 
					JOINT Toes_L
					{
						OFFSET 11.7543 0.0 0.0
						CHANNELS 6 Xposition Yposition Zposition Zrotation Xrotation Yrotation 
						End Site
						{
							OFFSET 0.0 0.0 0.0
						}
					}
				}
			}
		}
		JOINT UpperLeg_R
		{
			OFFSET -2.19251 6.46944 0.0
			CHANNELS 6 Xposition Yposition Zposition Zrotation Xrotation Yrotation 
			JOINT LowerLeg_R
			{
				OFFSET -39.0811 -0.00228153 -0.0401928
				CHANNELS 6 Xposition Yposition Zposition Zrotation Xrotation Yrotation 
				JOINT Foot_R
				{
					OFFSET -40.9854 0.0 0.0
					CHANNELS 6 Xposition Yposition Zposition Zrotation Xrotation Yrotation 
					JOINT Toes_R
					{
						OFFSET -11.7543 0.0 0.0
						CHANNELS 6 Xposition Yposition Zposition Zrotation Xrotation Yrotation 
						End Site
						{
							OFFSET 0.0 0.0 0.0
						}
					}
				}
			}
		}
	}
}
MOTION
Frames:	4
Frame Time:	0.0333333
0.000000 0.000000 0.000000 0.000000 0.000000 -0.000000 140.159000 89.958600 151.921000 84.325200 -67.450700 -6.990920 15.735700 0.000005 -0.000001 74.543800 80.740600 -76.144200 8.984550 -0.406207 -0.000000 10.043100 -4.935550 -2.766080 16.377300 -0.000001 -0.000001 0.863430 -10.121200 1.029160 6.456720 -0.000001 -0.000000 -1.302370 -12.624300 9.969420 12.994200 -0.242716 4.980390 -90.627700 2.413220 -75.415200 5.348090 -0.000007 -0.000001 -54.643600 10.875500 -22.615100 24.328600 0.000019 0.000005 11.618600 16.296200 -36.231600 22.291600 -0.000001 0.000005 18.288100 5.182150 3.162810 12.994500 -0.242716 -4.980390 88.162000 9.636530 -79.148100 -5.348130 -0.000001 -0.000004 -66.616600 29.455500 -4.182770 -24.328900 0.000322 -0.000009 2.954000 5.337820 -29.026100 -22.291500 -0.000108 -0.000004 16.486500 5.418940 -3.563480 -2.192480 -6.469440 -0.000000 -177.121000 -29.193700 -12.169200 39.081100 -0.000007 -0.000012 -0.225969 0.322951 34.980900 40.985400 -0.000006 -0.000013 -1.469610 -2.142160 -74.385800 11.754300 -0.000000 0.000003 -0.000512 -0.004062 -16.725900 -2.192510 6.469440 -0.000001 -165.281000 23.863500 154.905000 -39.081100 -0.002282 -0.040193 -0.058892 0.121323 27.143200 -40.985400 0.000008 0.000006 13.019700 2.740670 -59.362300 -11.754300 -0.000006 -0.000006 -0.008044 -0.088389 -20.172400
0.000000 0.000000 0.000000 0.000000 0.000000 -0.000000 139.059000 89.721700 153.089000 84.549900 -67.834300 -6.907540 15.735700 0.000005 -0.000001 73.530300 80.628400 -74.871500 8.984550 -0.406207 -0.000000 10.178900 -5.307330 -2.208960 16.377300 -0.000001 -0.000001 0.839791 -9.935990 0.864327 6.456720 -0.000001 -0.000000 -1.414120 -12.369600 9.582690 12.994200 -0.242716 4.980390 -90.647000 2.482650 -75.387400 5.348090 -0.000007 -0.000001 -54.804000 11.657200 -22.373400 24.328600 0.000019 0.000005 11.967800 16.143900 -37.319500 22.291600 -0.000001 0.000005 18.010400 5.189830 2.972820 12.994500 -0.242716 -4.980390 88.158600 9.630920 -79.122200 -5.348130 -0.000001 -0.000004 -66.429200 29.382100 -4.215870 -24.328900 0.000322 -0.000009 2.948360 5.334200 -28.996100 -22.291500 -0.000108 -0.000004 16.421900 5.412780 -3.357450 -2.192480 -6.469440 -0.000000 -177.194000 -29.467100 -10.990500 39.081100 -0.000007 -0.000012 -0.226564 0.323728 34.987000 40.985400 -0.000006 -0.000013 -1.657120 -2.191320 -75.637000 11.754300 -0.000000 0.000003 -0.000498 -0.003969 -16.722700 -2.192510 6.469440 -0.000001 -166.673000 22.458400 154.556000 -39.081100 -0.002282 -0.040193 -0.171875 0.301834 30.129900 -40.985400 0.000008 0.000006 10.986300 1.201530 -60.986600 -11.754300 -0.000006 -0.000006 -0.007284 -0.082082 -19.914900
0.000000 0.000000 0.000000 0.000000 0.000000 -0.000000 137.804000 89.556600 154.227000 84.210600 -68.049100 -7.320060 15.735700 0.000005 -0.000001 73.281500 80.582700 -74.172800 8.984550 -0.406207 -0.000000 10.264100 -5.401680 -1.296830 16.377300 -0.000001 -0.000001 0.708916 -9.967350 0.732144 6.456720 -0.000001 -0.000000 -1.403580 -12.202200 9.087820 12.994200 -0.242716 4.980390 -90.688600 2.649250 -75.424200 5.348090 -0.000007 -0.000001 -55.699900 12.776100 -21.777500 24.328600 0.000019 0.000005 12.817600 16.680800 -38.401200 22.291600 -0.000001 0.000005 17.685800 5.196800 2.799270 12.994500 -0.242716 -4.980390 88.159100 9.564740 -79.052300 -5.348130 -0.000001 -0.000004 -65.981700 29.309500 -4.252830 -24.328900 0.000322 -0.000009 2.820250 5.110350 -28.954000 -22.291500 -0.000108 -0.000004 16.316100 5.414130 -3.402500 -2.192480 -6.469440 -0.000000 -176.839000 -29.669500 -9.379030 39.081100 -0.000007 -0.000012 -0.199506 0.290345 34.494600 40.985400 -0.000006 -0.000013 -1.845850 -1.837930 -76.703100 11.754300 -0.000000 0.000003 -0.000342 -0.002899 -16.685100 -2.192510 6.469440 -0.000001 -167.722000 21.033300 154.683000 -39.081100 -0.002282 -0.040193 -0.229488 0.367243 32.369700 -40.985400 0.000008 0.000006 9.891380 0.059099 -62.742300 -11.754300 -0.000006 -0.000006 -0.005133 -0.062747 -19.126200
0.000000 0.000000 0.000000 0.000000 0.000000 -0.000000 136.413000 89.471600 155.310000 84.224500 -68.755900 -7.285450 15.735700 0.000005 -0.000001 74.073200 80.625600 -74.629200 8.984550 -0.406207 -0.000000 10.268400 -5.122970 -0.651147 16.377300 -0.000001 -0.000001 0.774235 -9.955140 0.862915 6.456720 -0.000001 -0.000000 -1.431300 -12.076700 8.704590 12.994200 -0.242716 4.980390 -90.673100 2.579750 -75.371100 5.348090 -0.000007 -0.000001 -57.329600 14.182500 -20.627500 24.328600 0.000019 0.000005 13.725600 17.227700 -39.511600 22.291600 -0.000001 0.000005 17.577600 5.199830 2.723340 12.994500 -0.242716 -4.980390 88.188800 9.418690 -79.063400 -5.348130 -0.000001 -0.000004 -65.471600 29.519700 -4.626040 -24.328900 0.000322 -0.000009 2.900090 5.352710 -28.513300 -22.291500 -0.000108 -0.000004 16.109400 5.409420 -3.246120 -2.192480 -6.469440 -0.000000 -176.812000 -30.212200 -8.706540 39.081100 -0.000007 -0.000012 0.030147 -0.042201 35.539900 40.985400 -0.000006 -0.000013 -0.173927 -2.197880 -76.121300 11.754300 -0.000000 0.000003 -1.188120 -1.549420 -17.805900 -2.192510 6.469440 -0.000001 -168.786000 19.804300 155.319000 -39.081100 -0.002282 -0.040193 -0.279623 0.419757 33.980400 -40.985400 0.000008 0.000006 9.395700 -0.453740 -64.408700 -11.754300 -0.000006 -0.000006 -0.003110 -0.041841 -18.274700
